<svg width="24" height="29" viewBox="0 0 24 29" fill="none" xmlns="http://www.w3.org/2000/svg">
<path d="M15.8369 4.58143C16.3709 3.97146 16.778 3.26295 17.0349 2.4966C17.2919 1.73024 17.3935 0.921128 17.3341 0.115723C15.6947 0.246876 14.173 1.01104 13.0967 2.24358C12.5813 2.83431 12.1907 3.52153 11.9481 4.26455C11.7055 5.00757 11.6158 5.79129 11.6843 6.56929C12.4839 6.5759 13.2744 6.40004 13.9945 6.05533C14.7146 5.71062 15.345 5.20631 15.8369 4.58143ZM19.3963 14.9967C19.4057 13.924 19.6908 12.8714 20.2246 11.9382C20.7584 11.005 21.5233 10.222 22.4472 9.66309C21.8641 8.83048 21.0934 8.14396 20.1961 7.65797C19.2987 7.17198 18.2995 6.89989 17.2776 6.86327C15.0742 6.63929 13.0402 8.13719 11.8679 8.13719C10.6955 8.13719 9.04297 6.89127 7.20678 6.91927C6.00638 6.95846 4.83671 7.30534 3.81187 7.92606C2.78703 8.54679 1.94201 9.42018 1.35922 10.461C-1.1267 14.7448 0.723614 21.1143 3.20953 24.5721C4.3395 26.266 5.75195 28.1839 7.61639 28.1139C9.48083 28.0439 10.0882 26.9659 12.2492 26.9659C14.4103 26.9659 15.0742 28.1139 16.9103 28.0719C18.7465 28.0299 20.046 26.336 21.2325 24.6421C22.0729 23.4123 22.7295 22.0685 23.1816 20.6524C22.0622 20.1792 21.1072 19.3914 20.4345 18.3863C19.7618 17.3812 19.4008 16.2029 19.3963 14.9967Z" fill="#0D0F1F"/>
</svg>
