<svg width="25" height="25" viewBox="0 0 25 25" fill="none" xmlns="http://www.w3.org/2000/svg">
<path d="M21.6268 9.19673V16.0367C21.6268 17.1567 21.0268 18.1967 20.0568 18.7667L14.1168 22.1967C13.1468 22.7567 11.9468 22.7567 10.9668 22.1967L5.02679 18.7667C4.05679 18.2067 3.45679 17.1667 3.45679 16.0367V9.19673C3.45679 8.07673 4.05679 7.03669 5.02679 6.46669L10.9668 3.0367C11.9368 2.4767 13.1368 2.4767 14.1168 3.0367L20.0568 6.46669C21.0268 7.03669 21.6268 8.06673 21.6268 9.19673Z" stroke="#D00B0E" stroke-width="1.5" stroke-linecap="round" stroke-linejoin="round"/>
<path d="M12.5468 11.6168C13.8336 11.6168 14.8768 10.5736 14.8768 9.28674C14.8768 7.99992 13.8336 6.95679 12.5468 6.95679C11.26 6.95679 10.2168 7.99992 10.2168 9.28674C10.2168 10.5736 11.26 11.6168 12.5468 11.6168Z" stroke="#D00B0E" stroke-width="1.5" stroke-linecap="round" stroke-linejoin="round"/>
<path d="M16.5469 17.2763C16.5469 15.4763 14.7569 14.0164 12.5469 14.0164C10.3369 14.0164 8.54688 15.4763 8.54688 17.2763" stroke="#D00B0E" stroke-width="1.5" stroke-linecap="round" stroke-linejoin="round"/>
<line x1="20.9543" y1="7.24638" x2="3.95431" y2="18.2464" stroke="#D00B0E" stroke-width="1.5"/>
<line x1="20.9543" y1="7.24638" x2="3.95431" y2="18.2464" stroke="#D00B0E" stroke-width="1.5"/>
</svg>
