<svg width="24" height="25" viewBox="0 0 24 25" fill="none" xmlns="http://www.w3.org/2000/svg">
<path d="M14.5299 9.67872L9.46992 14.7387C8.81992 14.0887 8.41992 13.1987 8.41992 12.2087C8.41992 10.2287 10.0199 8.62872 11.9999 8.62872C12.9899 8.62872 13.8799 9.02872 14.5299 9.67872Z" stroke="#589981" stroke-width="1.5" stroke-linecap="round" stroke-linejoin="round"/>
<path d="M17.8198 5.97872C16.0698 4.65872 14.0698 3.93872 11.9998 3.93872C8.46984 3.93872 5.17984 6.01872 2.88984 9.61872C1.98984 11.0287 1.98984 13.3987 2.88984 14.8087C3.67984 16.0487 4.59984 17.1187 5.59984 17.9787" stroke="#589981" stroke-width="1.5" stroke-linecap="round" stroke-linejoin="round"/>
<path d="M8.41992 19.7387C9.55992 20.2187 10.7699 20.4787 11.9999 20.4787C15.5299 20.4787 18.8199 18.3987 21.1099 14.7987C22.0099 13.3887 22.0099 11.0187 21.1099 9.60873C20.7799 9.08873 20.4199 8.59873 20.0499 8.13873" stroke="#589981" stroke-width="1.5" stroke-linecap="round" stroke-linejoin="round"/>
<path d="M15.5095 12.9088C15.2495 14.3188 14.0995 15.4688 12.6895 15.7288" stroke="#589981" stroke-width="1.5" stroke-linecap="round" stroke-linejoin="round"/>
<path d="M9.47 14.7388L2 22.2088" stroke="#589981" stroke-width="1.5" stroke-linecap="round" stroke-linejoin="round"/>
<path d="M21.9993 2.20874L14.5293 9.67874" stroke="#589981" stroke-width="1.5" stroke-linecap="round" stroke-linejoin="round"/>
</svg>
