<svg width="29" height="29" viewBox="0 0 29 29" fill="none" xmlns="http://www.w3.org/2000/svg">
<path d="M11.9885 24.3054H11.0576V22.5271C12.9312 22.2965 14.6576 21.3903 15.9097 19.9768C17.1631 18.5646 17.8562 16.7429 17.861 14.8539C17.8633 13.3557 17.4255 11.8905 16.6041 10.6384C16.0486 10.935 15.5578 11.3386 15.1565 11.8247C16.1239 13.4299 16.2651 15.4 15.539 17.1278C14.8128 18.8555 13.3064 20.1324 11.4835 20.5654C9.66047 20.9985 7.73976 20.5348 6.31471 19.3179C4.88951 18.1022 4.13043 16.278 4.27285 14.4092C4.41407 12.5415 5.43913 10.8526 7.03025 9.86407C8.62257 8.87669 10.5902 8.70722 12.3273 9.4098C12.7557 8.89787 13.243 8.43887 13.7796 8.04109C11.7518 6.95365 9.34506 6.82419 7.21381 7.69037C5.08256 8.55655 3.44662 10.3266 2.75217 12.5202C2.05899 14.7139 2.37792 17.1029 3.62305 19.0378C4.86935 20.9725 6.91121 22.2518 9.19551 22.5272V24.3042L8.26462 24.3054C7.75151 24.3054 7.3349 24.722 7.3349 25.2363C7.3349 25.7494 7.75151 26.1672 8.26462 26.1672H9.19551V27.0146V27.0134C9.19669 27.5265 9.61329 27.9419 10.1264 27.9419C10.6395 27.9419 11.0561 27.5265 11.0573 27.0134V26.1672H11.9882C12.5013 26.1672 12.9179 25.7494 12.9179 25.2363C12.9179 24.722 12.5013 24.3054 11.9882 24.3054L11.9885 24.3054Z" fill="#589981" stroke="white" stroke-width="0.2"/>
<path d="M26.702 14.9704C26.6973 13.0816 26.003 11.2599 24.7507 9.84749C23.4974 8.43407 21.7721 7.52788 19.8986 7.29722V5.06351L20.1729 5.33772C20.5365 5.69901 21.125 5.69784 21.4874 5.33537C21.8499 4.97289 21.8511 4.38447 21.4898 4.02079L19.628 2.15898C19.4538 1.98362 19.2172 1.88477 18.9701 1.88477C18.723 1.88477 18.4852 1.98362 18.311 2.15898L16.4492 4.02079H16.4504C16.0903 4.38561 16.0903 4.9729 16.4504 5.33772C16.8152 5.69783 17.4013 5.69783 17.7673 5.33772L18.0368 5.06821V7.2972C15.3853 7.61731 13.0856 9.28377 11.957 11.7046C10.8284 14.1266 11.0296 16.9583 12.4901 19.1953C13.0468 18.894 13.5387 18.4868 13.9365 17.9949C13.3846 17.0828 13.0927 16.0366 13.095 14.9704C13.095 13.4122 13.7141 11.9187 14.8144 10.8172C15.916 9.71686 17.4094 9.09782 18.9676 9.09782C20.5246 9.09782 22.0192 9.71686 23.1195 10.8172C24.221 11.9188 24.8401 13.4122 24.8401 14.9704C24.8401 16.5274 24.221 18.022 23.1195 19.1223C22.0191 20.2238 20.5245 20.8429 18.9676 20.8429C18.212 20.844 17.4647 20.6969 16.7668 20.4098C16.3384 20.9241 15.8536 21.3854 15.3193 21.7879C17.7154 23.0719 20.6103 23.0024 22.9431 21.6055C25.2757 20.2085 26.7029 17.6889 26.702 14.9704Z" fill="#589981" stroke="white" stroke-width="0.2"/>
</svg>
