<svg width="27" height="28" viewBox="0 0 27 28" fill="none" xmlns="http://www.w3.org/2000/svg">
<path d="M26.6436 13.9168C26.6436 12.8067 26.5535 11.9967 26.3586 11.1566H13.6826V16.1669H21.1231C20.9732 17.4121 20.1631 19.2872 18.3629 20.5472L18.3377 20.715L22.3456 23.8198L22.6233 23.8475C25.1734 21.4923 26.6436 18.0271 26.6436 13.9168Z" fill="#04B47C"/>
<path d="M13.6827 27.1178C17.328 27.1178 20.3882 25.9176 22.6234 23.8475L18.3631 20.5472C17.223 21.3423 15.6928 21.8973 13.6827 21.8973C10.1125 21.8973 7.08231 19.5422 6.00212 16.287L5.84379 16.3004L1.67633 19.5257L1.62183 19.6772C3.84197 24.0875 8.40231 27.1178 13.6827 27.1178Z" fill="#34A853"/>
<path d="M6.00201 16.2869C5.717 15.4469 5.55205 14.5467 5.55205 13.6167C5.55205 12.6866 5.717 11.7866 5.98702 10.9465L5.97947 10.7676L1.75977 7.49054L1.62171 7.55621C0.706685 9.38637 0.181641 11.4416 0.181641 13.6167C0.181641 15.7919 0.706685 17.847 1.62171 19.6771L6.00201 16.2869Z" fill="#FBBC05"/>
<path d="M13.6827 5.33607C16.2179 5.33607 17.928 6.43115 18.9031 7.34628L22.7134 3.62598C20.3733 1.45083 17.328 0.115723 13.6827 0.115723C8.40231 0.115723 3.84197 3.14592 1.62183 7.55621L5.98713 10.9465C7.08231 7.69127 10.1125 5.33607 13.6827 5.33607Z" fill="#EB4335"/>
</svg>
