<svg width="119" height="89" viewBox="0 0 119 89" fill="none" xmlns="http://www.w3.org/2000/svg">
<path d="M52.2073 16.3473L8.93888 12.8453C7.54802 12.7323 6.36008 13.8296 6.37225 15.2258C6.46676 26.2146 6.8643 68.4574 7.35693 69.2611C7.92422 70.1854 39.6067 64.3587 46.3988 70.0995L46.3561 70.5756C46.2846 71.3796 46.8674 72.0913 47.6699 72.1768C49.4417 72.3666 52.2563 72.7378 53.9882 72.9716C54.824 73.0847 55.5767 72.476 55.652 71.6363L55.7922 70.0663C55.7922 70.0663 65.2022 69.3571 75.0954 69.9283C85.7992 70.5456 91.9164 72.1054 94.1662 71.5375C96.415 70.9695 93.9459 13.7349 93.9459 13.7349L52.2065 16.3462L52.2073 16.3473Z" fill="#589981"/>
<path opacity="0.3" d="M11.2064 66.5727L11.0564 68.2543C11.0564 68.2543 26.2822 63.8161 38.0468 65.889C44.3862 67.0058 47.6964 67.822 49.4015 68.3365C50.672 68.7203 52.0085 68.7299 53.2893 68.3837C56.9063 67.4053 64.5278 65.5773 71.742 65.3362C81.6568 65.0056 91.6211 69.969 91.6211 69.969L91.8251 67.6767C91.8251 67.6767 74.7208 56.2355 74.2832 56.2834C73.8457 56.3313 54.4957 54.5204 54.4957 54.5204L13.3888 60.3971L11.2074 66.5728L11.2064 66.5727Z" fill="white"/>
<path d="M9.92546 11.3585L10.2241 66.8775C10.2241 66.8775 34.8423 58.6963 48.7228 67.4529C50.3068 68.4523 50.7577 68.6471 52.3961 67.7396C58.9142 64.1287 77.4102 56.7947 93.2655 68.7073L93.4017 12.5527C93.4017 12.5527 66.5758 -1.52408 52.2058 16.3483C52.2058 16.3483 34.413 -5.86747 9.92349 11.3583L9.92546 11.3585Z" fill="white"/>
<path opacity="0.6" d="M8.92156 11.358L9.22022 66.8771C9.22022 66.8771 33.8384 58.6958 47.7189 67.4524C49.3029 68.4518 49.7538 68.6467 51.3922 67.7391C57.9103 64.1282 76.4063 56.7942 92.2616 68.7068L92.3977 12.5522C92.3977 12.5522 65.5719 -1.52456 51.2019 16.3478C51.2019 16.3478 33.4091 -5.86796 8.91958 11.3578L8.92156 11.358Z" fill="white"/>
<path d="M52.207 16.3474C52.0475 33.6479 51.7344 50.946 51.2648 68.2406C51.4223 50.9399 51.7384 33.6421 52.207 16.3474Z" fill="#505050"/>
<path d="M57.3612 28.1026C66.3288 21.6723 78.6391 21.068 88.7539 24.9864C78.5173 21.3899 66.5129 21.9554 57.3612 28.1026Z" fill="#505050"/>
<path d="M57.0141 23.19C65.9854 16.7149 78.266 16.2663 88.4068 20.0739C78.1463 16.5884 66.1695 16.998 57.0141 23.19Z" fill="#505050"/>
<path d="M57.3265 31.8238C66.3021 25.328 78.5609 24.9896 88.7192 28.7076C78.4431 25.312 66.4861 25.6111 57.3265 31.8238Z" fill="#505050"/>
<path d="M57.2931 35.5461C66.2664 29.0712 78.5403 28.6581 88.6858 32.43C78.4215 28.9803 66.4505 29.3543 57.2931 35.5461Z" fill="#505050"/>
<path d="M57.2587 39.2685C66.1426 32.7549 78.2494 32.4556 88.3657 36.0303C78.1407 32.7779 66.3165 33.0389 57.2587 39.2685Z" fill="#505050"/>
<path d="M57.2243 42.9908C66.1964 36.4232 78.4411 36.1698 88.617 39.8746C78.3284 36.4917 66.3701 36.7092 57.2243 42.9908Z" fill="#505050"/>
<path d="M57.1813 47.6161C66.1601 41.0332 78.3782 40.9258 88.574 44.5C78.2683 41.249 66.3328 41.3191 57.1813 47.6161Z" fill="#505050"/>
<path d="M56.7156 51.8868C65.6865 45.3785 77.9574 44.9831 88.1083 48.7706C77.8427 45.3047 65.8601 45.6645 56.7156 51.8868Z" fill="#505050"/>
<path d="M56.6635 57.3692C65.6493 50.8433 77.8654 50.7367 88.0562 54.253C77.7565 51.06 65.821 51.1291 56.6635 57.3692Z" fill="#505050"/>
<path d="M47.2138 27.2978C37.9949 21.3136 25.8485 20.3133 15.7736 24.7048C25.7053 19.9964 38.1874 21.0264 47.2138 27.2978Z" fill="#505050"/>
<path d="M47.4795 22.3803C38.2605 16.3961 26.1141 15.3959 16.0392 19.7874C25.9709 15.0789 38.453 16.1089 47.4795 22.3803Z" fill="#505050"/>
<path d="M47.3095 31.019C38.0906 25.0348 25.9442 24.0345 15.8693 28.426C25.801 23.7176 38.2841 24.7477 47.3095 31.019Z" fill="#505050"/>
<path d="M47.4072 34.7392C38.1881 28.756 26.0418 27.7547 15.967 32.1462C25.8986 27.4378 38.3817 28.4679 47.4072 34.7392Z" fill="#505050"/>
<path d="M47.5029 38.4604C38.284 32.4762 26.1376 31.4759 16.0627 35.8674C25.9943 31.159 38.4775 32.1891 47.5029 38.4604Z" fill="#505050"/>
<path d="M47.6006 42.1814C38.3816 36.1971 26.2352 35.1969 16.1603 39.5884C26.092 34.8799 38.5751 35.91 47.6006 42.1814Z" fill="#505050"/>
<path d="M47.7197 46.8064C38.5007 40.8221 26.3543 39.8219 16.2795 44.2134C26.2111 39.5049 38.6942 40.535 47.7197 46.8064Z" fill="#505050"/>
<path d="M48.2568 51.0681C39.0377 45.0849 26.8915 44.0836 16.8166 48.4751C26.7482 43.7666 39.2313 44.7967 48.2568 51.0681Z" fill="#505050"/>
<path d="M48.3994 56.549C39.1804 50.5648 27.034 49.5646 16.9592 53.956C26.8908 49.2476 39.3739 50.2777 48.3994 56.549Z" fill="#505050"/>
<path d="M105.356 53.0808C104.473 53.0719 103.278 53.0906 101.979 52.704C101.979 52.704 103.054 53.3102 104.507 53.8195C101.659 56.3476 98.5568 59.483 95.369 63.3443C91.5872 64.4779 87.8972 63.2091 87.8972 63.2091C89.7157 65.2537 93.3612 65.9196 93.3612 65.9196C91.1118 66.7177 85.9888 65.7958 83.0081 65.1425C81.3645 64.7816 79.668 65.4054 78.6328 66.732C77.6302 68.0149 76.6413 69.804 76.6177 71.8787C76.6177 71.8787 72.1998 72.6563 69.3882 74.7914C69.6714 74.4239 85.5508 53.8019 108.174 46.5591L107.958 46.6048C90.0032 51.12 75.5071 66.8627 75.5071 66.8627C75.5185 66.6606 75.5711 66.4621 75.6604 66.2842C75.7232 66.1593 75.8056 66.0422 75.9 65.9397C76.4363 65.3629 76.8808 64.8878 77.4935 64.2916C78.3429 63.4544 78.9177 62.3785 79.1405 61.2051C79.7113 58.2034 80.9892 55.6042 81.9517 54.2175C82.1028 54.0021 82.2882 53.8124 82.4975 53.6562C82.4983 53.6545 82.5009 53.6536 82.5009 53.6536C82.1947 54.451 81.8171 55.9922 82.5583 57.6671C82.5583 57.6671 82.5656 55.0872 84.2823 52.357L84.2841 52.3536C90.997 47.7074 98.0309 45.534 103.99 44.5792C103.856 45.1269 103.771 45.7612 103.864 46.3437C103.864 46.3437 104.179 45.4351 104.802 44.4561C112.796 43.3004 118.668 44.314 118.864 44.3033C118.691 44.3577 113.039 46.4666 105.356 53.0808Z" fill="#589981"/>
</svg>
