<svg width="102" height="80" viewBox="0 0 102 80" fill="none" xmlns="http://www.w3.org/2000/svg">
<path d="M52.2095 16.865L8.94107 13.363C7.55021 13.25 6.36227 14.3473 6.37445 15.7435C6.46896 26.7323 6.86649 68.9751 7.35913 69.7788C7.92641 70.7031 39.6089 64.8764 46.401 70.6172L46.3583 71.0933C46.2867 71.8973 46.8696 72.609 47.6721 72.6945C49.4439 72.8843 52.2585 73.2555 53.9904 73.4893C54.8262 73.6024 55.5789 72.9937 55.6542 72.154L55.7944 70.584C55.7944 70.584 65.2044 69.8748 75.0976 70.446C85.8014 71.0633 91.9186 72.6231 94.1684 72.0552C96.4172 71.4872 93.9481 14.2526 93.9481 14.2526L52.2086 16.8639L52.2095 16.865Z" fill="#589981"/>
<path opacity="0.3" d="M11.2086 67.0905L11.0586 68.7721C11.0586 68.7721 26.2844 64.3339 38.049 66.4068C44.3884 67.5236 47.6986 68.3398 49.4037 68.8544C50.6742 69.2381 52.0107 69.2477 53.2915 68.9015C56.9085 67.9231 64.53 66.0952 71.7442 65.854C81.659 65.5234 91.6233 70.4868 91.6233 70.4868L91.8273 68.1945C91.8273 68.1945 74.7229 56.7533 74.2854 56.8012C73.8479 56.8491 54.4979 55.0382 54.4979 55.0382L13.391 60.9149L11.2096 67.0906L11.2086 67.0905Z" fill="white"/>
<path d="M9.92815 11.8762L10.2268 67.3952C10.2268 67.3952 34.845 59.214 48.7255 67.9706C50.3095 68.97 50.7604 69.1648 52.3988 68.2573C58.9169 64.6464 77.4129 57.3124 93.2682 69.225L93.4043 13.0704C93.4043 13.0704 66.5785 -1.00637 52.2085 16.866C52.2085 16.866 34.4157 -5.34977 9.92618 11.876L9.92815 11.8762Z" fill="white"/>
<path opacity="0.6" d="M8.92375 11.8759L9.22241 67.3949C9.22241 67.3949 33.8406 59.2136 47.7211 67.9702C49.3051 68.9696 49.756 69.1645 51.3944 68.2569C57.9125 64.6461 76.4085 57.312 92.2638 69.2246L92.3999 13.0701C92.3999 13.0701 65.5741 -1.00674 51.2041 16.8656C51.2041 16.8656 33.4113 -5.35013 8.92178 11.8757L8.92375 11.8759Z" fill="#DAEFDC"/>
<path d="M52.2095 16.8651C52.05 34.1656 51.7368 51.4637 51.2672 68.7583C51.4247 51.4576 51.7408 34.1598 52.2095 16.8651Z" fill="#505050"/>
<path d="M57.3644 28.6203C66.332 22.19 78.6423 21.5857 88.7571 25.5041C78.5205 21.9076 66.5161 22.4731 57.3644 28.6203Z" fill="#505050"/>
<path d="M57.0168 23.7079C65.9881 17.2328 78.2687 16.7841 88.4095 20.5917C78.1489 17.1062 66.1722 17.5158 57.0168 23.7079Z" fill="#505050"/>
<path d="M57.3299 32.3416C66.3055 25.8458 78.5643 25.5075 88.7226 29.2254C78.4465 25.8298 66.4895 26.1289 57.3299 32.3416Z" fill="#505050"/>
<path d="M57.2955 36.064C66.2689 29.5891 78.5427 29.1759 88.6882 32.9478C78.4239 29.4981 66.4529 29.8721 57.2955 36.064Z" fill="#505050"/>
<path d="M57.2609 39.7862C66.1448 33.2726 78.2516 32.9733 88.3679 36.548C78.1429 33.2956 66.3187 33.5566 57.2609 39.7862Z" fill="#505050"/>
<path d="M57.2264 43.5085C66.1986 36.9409 78.4433 36.6876 88.6191 40.3923C78.3306 37.0094 66.3723 37.2269 57.2264 43.5085Z" fill="#505050"/>
<path d="M57.1832 48.134C66.162 41.551 78.3801 41.4437 88.5759 45.0178C78.2703 41.7668 66.3347 41.8369 57.1832 48.134Z" fill="#505050"/>
<path d="M56.7183 52.4047C65.6892 45.8964 77.9601 45.501 88.111 49.2886C77.8454 45.8227 65.8628 46.1824 56.7183 52.4047Z" fill="#505050"/>
<path d="M56.6662 57.887C65.652 51.3611 77.8681 51.2546 88.0589 54.7708C77.7592 51.5778 65.8237 51.6469 56.6662 57.887Z" fill="#505050"/>
<path d="M47.2146 27.8156C37.9956 21.8314 25.8492 20.8312 15.7744 25.2226C25.706 20.5142 38.1881 21.5442 47.2146 27.8156Z" fill="#505050"/>
<path d="M47.4809 22.8982C38.262 16.9139 26.1156 15.9137 16.0407 20.3052C25.9723 15.5967 38.4545 16.6267 47.4809 22.8982Z" fill="#505050"/>
<path d="M47.312 31.5368C38.093 25.5526 25.9466 24.5523 15.8718 28.9438C25.8034 24.2354 38.2865 25.2655 47.312 31.5368Z" fill="#505050"/>
<path d="M47.4084 35.257C38.1893 29.2738 26.0431 28.2726 15.9682 32.6641C25.8998 27.9556 38.3829 28.9857 47.4084 35.257Z" fill="#505050"/>
<path d="M47.5046 38.9781C38.2857 32.9939 26.1393 31.9936 16.0644 36.3851C25.996 31.6767 38.4792 32.7068 47.5046 38.9781Z" fill="#505050"/>
<path d="M47.601 42.6993C38.3821 36.7151 26.2357 35.7148 16.1608 40.1063C26.0925 35.3979 38.5756 36.428 47.601 42.6993Z" fill="#505050"/>
<path d="M47.7219 47.3241C38.5029 41.3398 26.3565 40.3396 16.2817 44.7311C26.2133 40.0226 38.6964 41.0527 47.7219 47.3241Z" fill="#505050"/>
<path d="M48.2575 51.5858C39.0385 45.6026 26.8922 44.6013 16.8173 48.9928C26.749 44.2843 39.2321 45.3144 48.2575 51.5858Z" fill="#505050"/>
<path d="M48.4006 57.0669C39.1816 51.0826 27.0353 50.0824 16.9604 54.4739C26.892 49.7654 39.3751 50.7955 48.4006 57.0669Z" fill="#505050"/>
</svg>
