<svg width="119" height="90" viewBox="0 0 119 90" fill="none" xmlns="http://www.w3.org/2000/svg">
<path d="M52.2095 16.865L8.94107 13.363C7.55021 13.25 6.36227 14.3473 6.37445 15.7435C6.46896 26.7323 6.86649 68.9751 7.35913 69.7788C7.92641 70.7031 39.6089 64.8764 46.401 70.6172L46.3583 71.0933C46.2867 71.8973 46.8696 72.609 47.6721 72.6945C49.4439 72.8843 52.2585 73.2555 53.9904 73.4893C54.8262 73.6024 55.5789 72.9937 55.6542 72.154L55.7944 70.584C55.7944 70.584 65.2044 69.8748 75.0976 70.446C85.8014 71.0633 91.9186 72.6231 94.1684 72.0552C96.4172 71.4872 93.9481 14.2526 93.9481 14.2526L52.2086 16.8639L52.2095 16.865Z" fill="#589981"/>
<path opacity="0.3" d="M11.2085 67.0905L11.0585 68.7721C11.0585 68.7721 26.2843 64.3339 38.0489 66.4068C44.3883 67.5236 47.6984 68.3398 49.4035 68.8544C50.674 69.2381 52.0105 69.2477 53.2914 68.9015C56.9084 67.9231 64.5299 66.0952 71.7441 65.854C81.6589 65.5234 91.6231 70.4868 91.6231 70.4868L91.8271 68.1945C91.8271 68.1945 74.7228 56.7533 74.2853 56.8012C73.8477 56.8491 54.4977 55.0382 54.4977 55.0382L13.3909 60.9149L11.2095 67.0906L11.2085 67.0905Z" fill="white"/>
<path d="M9.92803 11.8762L10.2267 67.3952C10.2267 67.3952 34.8448 59.214 48.7254 67.9706C50.3094 68.97 50.7603 69.1648 52.3986 68.2573C58.9168 64.6464 77.4128 57.3124 93.2681 69.225L93.4042 13.0704C93.4042 13.0704 66.5784 -1.00637 52.2084 16.866C52.2084 16.866 34.4155 -5.34977 9.92605 11.876L9.92803 11.8762Z" fill="white"/>
<path opacity="0.6" d="M8.92375 11.8759L9.22241 67.3949C9.22241 67.3949 33.8406 59.2136 47.7211 67.9702C49.3051 68.9696 49.756 69.1645 51.3944 68.2569C57.9125 64.6461 76.4085 57.312 92.2638 69.2246L92.3999 13.0701C92.3999 13.0701 65.5741 -1.00674 51.2041 16.8656C51.2041 16.8656 33.4113 -5.35013 8.92178 11.8757L8.92375 11.8759Z" fill="#DAEFDC"/>
<path d="M52.2095 16.8651C52.05 34.1656 51.7368 51.4637 51.2672 68.7583C51.4247 51.4576 51.7408 34.1598 52.2095 16.8651Z" fill="#505050"/>
<path d="M57.3643 28.6203C66.3319 22.19 78.6422 21.5857 88.757 25.5041C78.5204 21.9076 66.5159 22.4731 57.3643 28.6203Z" fill="#505050"/>
<path d="M57.0168 23.7079C65.9881 17.2328 78.2687 16.7841 88.4095 20.5917C78.1489 17.1062 66.1722 17.5158 57.0168 23.7079Z" fill="#505050"/>
<path d="M57.3299 32.3416C66.3055 25.8458 78.5643 25.5075 88.7226 29.2254C78.4465 25.8298 66.4895 26.1289 57.3299 32.3416Z" fill="#505050"/>
<path d="M57.2954 36.064C66.2688 29.5891 78.5426 29.1759 88.6881 32.9478C78.4238 29.4981 66.4528 29.8721 57.2954 36.064Z" fill="#505050"/>
<path d="M57.261 39.7862C66.1449 33.2726 78.2517 32.9733 88.368 36.548C78.143 33.2956 66.3188 33.5566 57.261 39.7862Z" fill="#505050"/>
<path d="M57.2264 43.5085C66.1986 36.9409 78.4433 36.6876 88.6191 40.3923C78.3306 37.0094 66.3723 37.2269 57.2264 43.5085Z" fill="#505050"/>
<path d="M57.1832 48.134C66.162 41.551 78.3801 41.4437 88.5759 45.0178C78.2703 41.7668 66.3347 41.8369 57.1832 48.134Z" fill="#505050"/>
<path d="M56.7183 52.4047C65.6892 45.8964 77.9601 45.501 88.111 49.2886C77.8454 45.8227 65.8628 46.1824 56.7183 52.4047Z" fill="#505050"/>
<path d="M56.6662 57.887C65.652 51.3611 77.8681 51.2546 88.0589 54.7708C77.7592 51.5778 65.8237 51.6469 56.6662 57.887Z" fill="#505050"/>
<path d="M47.2144 27.8156C37.9955 21.8314 25.8491 20.8312 15.7742 25.2226C25.7059 20.5142 38.188 21.5442 47.2144 27.8156Z" fill="#505050"/>
<path d="M47.4808 22.8982C38.2618 16.9139 26.1155 15.9137 16.0406 20.3052C25.9722 15.5967 38.4543 16.6267 47.4808 22.8982Z" fill="#505050"/>
<path d="M47.3117 31.5368C38.0928 25.5526 25.9464 24.5523 15.8715 28.9438C25.8032 24.2354 38.2863 25.2655 47.3117 31.5368Z" fill="#505050"/>
<path d="M47.4083 35.257C38.1892 29.2738 26.0429 28.2726 15.9681 32.6641C25.8997 27.9556 38.3828 28.9857 47.4083 35.257Z" fill="#505050"/>
<path d="M47.5046 38.9781C38.2857 32.9939 26.1393 31.9936 16.0644 36.3851C25.996 31.6767 38.4792 32.7068 47.5046 38.9781Z" fill="#505050"/>
<path d="M47.601 42.6993C38.3821 36.7151 26.2357 35.7148 16.1608 40.1063C26.0925 35.3979 38.5756 36.428 47.601 42.6993Z" fill="#505050"/>
<path d="M47.7218 47.3241C38.5028 41.3398 26.3564 40.3396 16.2816 44.7311C26.2132 40.0226 38.6963 41.0527 47.7218 47.3241Z" fill="#505050"/>
<path d="M48.2573 51.5858C39.0382 45.6026 26.8919 44.6013 16.8171 48.9928C26.7487 44.2843 39.2318 45.3144 48.2573 51.5858Z" fill="#505050"/>
<path d="M48.4006 57.0669C39.1816 51.0826 27.0353 50.0824 16.9604 54.4739C26.892 49.7654 39.3751 50.7955 48.4006 57.0669Z" fill="#505050"/>
<path d="M105.361 53.5986C104.478 53.5898 103.282 53.6084 101.984 53.2219C101.984 53.2219 103.058 53.828 104.512 54.3374C101.663 56.8654 98.5614 60.0008 95.3736 63.8621C91.5918 64.9957 87.9019 63.7269 87.9019 63.7269C89.7203 65.7715 93.3658 66.4375 93.3658 66.4375C91.1164 67.2355 85.9934 66.3136 83.0128 65.6603C81.3692 65.2995 79.6727 65.9232 78.6374 67.2498C77.6348 68.5327 76.646 70.3218 76.6223 72.3965C76.6223 72.3965 72.2045 73.1741 69.3928 75.3092C69.6761 74.9417 85.5554 54.3197 108.178 47.0769L107.962 47.1226C90.0078 51.6378 75.5117 67.3805 75.5117 67.3805C75.5231 67.1784 75.5757 66.9799 75.6651 66.802C75.7278 66.6771 75.8102 66.56 75.9046 66.4575C76.441 65.8807 76.8855 65.4057 77.4981 64.8094C78.3476 63.9722 78.9224 62.8963 79.1451 61.7229C79.7159 58.7213 80.9938 56.122 81.9563 54.7353C82.1075 54.5199 82.2928 54.3302 82.5021 54.174C82.503 54.1723 82.5055 54.1714 82.5055 54.1714C82.1993 54.9688 81.8218 56.5101 82.563 58.1849C82.563 58.1849 82.5702 55.605 84.287 52.8749L84.2887 52.8714C91.0016 48.2253 98.0356 46.0519 103.994 45.0971C103.861 45.6448 103.776 46.2791 103.869 46.8615C103.869 46.8615 104.184 45.9529 104.807 44.9739C112.8 43.8182 118.673 44.8318 118.869 44.8211C118.696 44.8755 113.043 46.9844 105.361 53.5986Z" fill="#589981"/>
</svg>
