<svg width="24" height="25" viewBox="0 0 24 25" fill="none" xmlns="http://www.w3.org/2000/svg">
<path d="M18 10.9587C17.59 10.9587 17.25 10.6187 17.25 10.2087V8.20874C17.25 5.05874 16.36 2.95874 12 2.95874C7.64 2.95874 6.75 5.05874 6.75 8.20874V10.2087C6.75 10.6187 6.41 10.9587 6 10.9587C5.59 10.9587 5.25 10.6187 5.25 10.2087V8.20874C5.25 5.30874 5.95 1.45874 12 1.45874C18.05 1.45874 18.75 5.30874 18.75 8.20874V10.2087C18.75 10.6187 18.41 10.9587 18 10.9587Z" fill="#589981"/>
<path d="M12 19.4587C10.21 19.4587 8.75 17.9987 8.75 16.2087C8.75 14.4187 10.21 12.9587 12 12.9587C13.79 12.9587 15.25 14.4187 15.25 16.2087C15.25 17.9987 13.79 19.4587 12 19.4587ZM12 14.4587C11.04 14.4587 10.25 15.2487 10.25 16.2087C10.25 17.1687 11.04 17.9587 12 17.9587C12.96 17.9587 13.75 17.1687 13.75 16.2087C13.75 15.2487 12.96 14.4587 12 14.4587Z" fill="#589981"/>
<path d="M17 22.9587H7C2.59 22.9587 1.25 21.6187 1.25 17.2087V15.2087C1.25 10.7987 2.59 9.45874 7 9.45874H17C21.41 9.45874 22.75 10.7987 22.75 15.2087V17.2087C22.75 21.6187 21.41 22.9587 17 22.9587ZM7 10.9587C3.42 10.9587 2.75 11.6387 2.75 15.2087V17.2087C2.75 20.7787 3.42 21.4587 7 21.4587H17C20.58 21.4587 21.25 20.7787 21.25 17.2087V15.2087C21.25 11.6387 20.58 10.9587 17 10.9587H7Z" fill="#589981"/>
</svg>
