<svg width="25" height="25" viewBox="0 0 25 25" fill="none" xmlns="http://www.w3.org/2000/svg">
<path d="M12.567 3.52661C9.25696 3.52661 6.56696 6.21661 6.56696 9.52661V12.4166C6.56696 13.0266 6.30696 13.9566 5.99696 14.4766L4.84696 16.3866C4.13696 17.5666 4.62696 18.8766 5.92696 19.3166C10.237 20.7566 14.887 20.7566 19.197 19.3166C20.407 18.9166 20.937 17.4866 20.277 16.3866L19.127 14.4766C18.827 13.9566 18.567 13.0266 18.567 12.4166V9.52661C18.567 6.22661 15.867 3.52661 12.567 3.52661Z" stroke="#589981" stroke-width="1.5" stroke-miterlimit="10" stroke-linecap="round"/>
<path d="M14.4168 3.81664C14.1068 3.72664 13.7868 3.65664 13.4568 3.61664C12.4968 3.49664 11.5768 3.56664 10.7168 3.81664C11.0068 3.07664 11.7268 2.55664 12.5668 2.55664C13.4068 2.55664 14.1268 3.07664 14.4168 3.81664Z" stroke="#589981" stroke-width="1.5" stroke-miterlimit="10" stroke-linecap="round" stroke-linejoin="round"/>
<path d="M15.5669 19.6768C15.5669 21.3268 14.2169 22.6768 12.5669 22.6768C11.7469 22.6768 10.9869 22.3368 10.4469 21.7968C9.90689 21.2568 9.56689 20.4968 9.56689 19.6768" stroke="#589981" stroke-width="1.5" stroke-miterlimit="10"/>
</svg>
