<svg width="55" height="56" viewBox="0 0 55 56" fill="none" xmlns="http://www.w3.org/2000/svg">
<path d="M21.1026 42.8392C21.1026 39.4064 23.4735 36.5274 26.6673 35.7501V32.1287C26.6673 30.781 25.5753 29.6889 24.2275 29.6889H18.9204C18.9204 26.7051 16.5012 24.2856 13.5171 24.2856C10.5329 24.2856 8.11378 26.7048 8.11378 29.6889H2.80624C1.45886 29.6889 0.366455 30.781 0.366455 32.1287V53.5497C0.366455 54.897 1.45923 55.9891 2.80624 55.9891L24.2272 55.9894C25.5749 55.9894 26.667 54.8967 26.667 53.5497V49.9282C23.4732 49.151 21.1023 46.2716 21.1023 42.8388L21.1026 42.8392Z" fill="#DAEFDC"/>
<path d="M2.80624 26.3741H6.42766C7.20489 23.1803 10.0843 20.8094 13.5171 20.8094C16.9499 20.8094 19.8289 23.1803 20.6061 26.3741H24.2275C25.5753 26.3741 26.6673 25.2821 26.6673 23.9343V18.6272C29.6511 18.6272 32.0706 16.208 32.0706 13.2239C32.0706 10.2397 29.6515 7.82057 26.6673 7.82057V2.51303C26.6673 1.16565 25.5753 0.0732422 24.2275 0.0732422H2.80624C1.45923 0.0732422 0.366818 1.16601 0.366818 2.51303H0.366455V23.934C0.366455 25.2821 1.45923 26.3741 2.80624 26.3741Z" fill="#DAEFDC"/>
<path d="M52.1935 0.0736049L30.7725 0.0732422C29.4248 0.0732422 28.3328 1.16601 28.3328 2.51303V6.13444C31.5266 6.91168 33.8974 9.79104 33.8974 13.2239C33.8974 16.6567 31.5266 19.5357 28.3328 20.3129V23.9343C28.3328 25.2821 29.4248 26.3741 30.7725 26.3741H36.0797C36.0797 29.3579 38.4988 31.7774 41.483 31.7774C44.4672 31.7774 46.8863 29.3583 46.8863 26.3741H52.1938C53.5412 26.3741 54.6336 25.2821 54.6336 23.9343V2.51303C54.6336 1.16601 53.5409 0.0736049 52.1935 0.0736049Z" fill="#589981"/>
<path d="M52.1933 29.689H48.5719C47.7947 32.8828 44.9153 35.2537 41.4825 35.2537C38.0497 35.2537 35.1707 32.8828 34.3934 29.689H30.772C29.4243 29.689 28.3322 30.781 28.3322 32.1288V37.4359C25.3484 37.4359 22.929 39.855 22.929 42.8392C22.929 45.8234 25.3481 48.2425 28.3322 48.2425V53.5501C28.3322 54.8974 29.4243 55.9898 30.772 55.9898H52.193C53.5403 55.9898 54.6324 54.8971 54.6324 53.5501H54.6328V32.1291C54.6328 30.7814 53.54 29.6893 52.193 29.6893L52.1933 29.689Z" fill="#DAEFDC"/>
</svg>
