<svg width="27" height="28" viewBox="0 0 27 28" fill="none" xmlns="http://www.w3.org/2000/svg">
<path d="M6.30806 14.5913H0.0444336C0.203186 19.1951 2.68551 23.2217 6.35609 25.5212L9.48298 20.1043C7.68375 18.892 6.46185 16.886 6.30806 14.5913Z" fill="#589981"/>
<path d="M9.4879 8.12078L6.35609 2.69922C2.68548 4.99876 0.203303 9.02535 0.0444336 13.6292H6.29821C6.45215 11.4114 7.6356 9.36217 9.48759 8.12078H9.4879Z" fill="#589981"/>
<path d="M13.4999 7.85645C12.379 7.85645 11.2821 8.15471 10.325 8.72237C8.42471 9.84807 7.24609 11.9118 7.24609 14.1104C7.24609 17.5596 10.0507 20.3641 13.4999 20.3641C15.1692 20.3641 16.7422 19.7147 17.9208 18.5313C18.1012 18.3485 18.4235 18.3485 18.6039 18.5313L19.7537 19.6858V14.1103C19.7537 10.6611 16.949 7.85645 13.4999 7.85645ZM13.4999 17.9588C13.2353 17.9588 13.0188 17.7423 13.0188 17.4777C13.0188 17.2131 13.2353 16.9966 13.4999 16.9966C13.7645 16.9966 13.9809 17.2131 13.9809 17.4777C13.9809 17.7423 13.7645 17.9588 13.4999 17.9588ZM14.5294 13.8119C14.183 14.0284 13.981 14.394 13.981 14.7836V15.5533C13.981 15.8179 13.7645 16.0344 13.4999 16.0344C13.2353 16.0344 13.0188 15.8179 13.0188 15.5533V14.7836C13.0188 14.062 13.3892 13.3933 14.0147 12.9988C14.2937 12.8208 14.462 12.5178 14.462 12.1858C14.462 11.6566 14.0291 11.2237 13.4999 11.2237C12.9707 11.2237 12.5378 11.6566 12.5378 12.1858C12.5378 12.4504 12.3213 12.6669 12.0567 12.6669C11.7921 12.6669 11.5756 12.4504 11.5756 12.1858C11.5756 11.1227 12.4367 10.2616 13.4999 10.2616C14.5631 10.2616 15.4242 11.1227 15.4242 12.1858C15.4242 12.8497 15.0874 13.4559 14.5294 13.8119Z" fill="#589981"/>
<path d="M13.5001 6.89406C14.6403 6.89406 15.7179 7.16827 16.68 7.63973L19.8118 2.21325C17.926 1.20782 15.7803 0.640137 13.5001 0.640137C11.2199 0.640137 9.07428 1.20782 7.18848 2.21325L10.3203 7.63481C11.3017 7.14893 12.3889 6.89406 13.5001 6.89406Z" fill="#589981"/>
<path d="M13.4997 21.3267C12.3596 21.3267 11.282 21.0525 10.3198 20.5811L7.18311 26.0075C9.06891 27.013 11.2192 27.5807 13.4997 27.5807C15.7802 27.5807 17.9255 27.013 19.8113 26.0075L16.6795 20.5906C15.7029 21.0717 14.6205 21.3267 13.4997 21.3267Z" fill="#589981"/>
<path d="M20.7161 20.8451C20.7306 21.2589 20.1797 21.4898 19.8935 21.1867L19.0276 20.316L18.253 19.5415C18.0173 19.7483 17.7672 19.9311 17.5122 20.1043L20.6489 25.5212C24.3146 23.2169 26.7971 19.1951 26.9557 14.5913H20.7161L20.7161 20.8451Z" fill="#589981"/>
<path d="M20.692 13.6292H26.9556C26.7969 9.02535 24.3146 4.99882 20.644 2.69922L17.5171 8.11616C19.3163 9.32846 20.5382 11.3345 20.692 13.6292Z" fill="#589981"/>
</svg>
