<svg width="55" height="57" viewBox="0 0 55 57" fill="none" xmlns="http://www.w3.org/2000/svg">
<path d="M21.1034 43.3214C21.1034 39.8886 23.4743 37.0096 26.6681 36.2323V32.6109C26.6681 31.2632 25.576 30.1711 24.2283 30.1711H18.9211C18.9211 27.1873 16.502 24.7678 13.5178 24.7678C10.5336 24.7678 8.11452 27.1869 8.11452 30.1711H2.80697C1.4596 30.1711 0.367188 31.2632 0.367188 32.6109V54.0318C0.367188 55.3792 1.45996 56.4713 2.80697 56.4713L24.2279 56.4716C25.5757 56.4716 26.6677 55.3789 26.6677 54.0318V50.4104C23.4739 49.6332 21.103 46.7538 21.103 43.321L21.1034 43.3214Z" fill="white"/>
<path d="M2.80697 26.8563H6.42839C7.20563 23.6625 10.085 21.2916 13.5178 21.2916C16.9506 21.2916 19.8296 23.6625 20.6069 26.8563H24.2283C25.576 26.8563 26.6681 25.7642 26.6681 24.4165V19.1093C29.6519 19.1093 32.0714 16.6902 32.0714 13.706C32.0714 10.7219 29.6522 8.30275 26.6681 8.30275V2.99521C26.6681 1.64783 25.576 0.55542 24.2283 0.55542H2.80697C1.45996 0.55542 0.36755 1.64819 0.36755 2.99521H0.367188V24.4161C0.367188 25.7642 1.45996 26.8563 2.80697 26.8563Z" fill="white"/>
<path d="M52.1947 0.555783L30.7738 0.55542C29.426 0.55542 28.334 1.64819 28.334 2.99521V6.61662C31.5278 7.39386 33.8987 10.2732 33.8987 13.706C33.8987 17.1389 31.5278 20.0179 28.334 20.7951V24.4165C28.334 25.7642 29.426 26.8563 30.7738 26.8563H36.0809C36.0809 29.8401 38.5001 32.2596 41.4842 32.2596C44.4684 32.2596 46.8875 29.8405 46.8875 26.8563H52.1951C53.5424 26.8563 54.6349 25.7642 54.6349 24.4165V2.99521C54.6349 1.64819 53.5421 0.555783 52.1947 0.555783Z" fill="#589981"/>
<path d="M52.1941 30.1711H48.5726C47.7954 33.365 44.9161 35.7358 41.4832 35.7358C38.0504 35.7358 35.1714 33.365 34.3942 30.1711H30.7728C29.425 30.1711 28.333 31.2632 28.333 32.6109V37.9181C25.3492 37.9181 22.9297 40.3372 22.9297 43.3214C22.9297 46.3056 25.3488 48.7247 28.333 48.7247V54.0322C28.333 55.3796 29.425 56.472 30.7728 56.472H52.1937C53.5411 56.472 54.6331 55.3792 54.6331 54.0322H54.6335V32.6113C54.6335 31.2636 53.5407 30.1715 52.1937 30.1715L52.1941 30.1711Z" fill="white"/>
</svg>
