<svg width="18" height="19" viewBox="0 0 18 19" fill="none" xmlns="http://www.w3.org/2000/svg">
<path d="M10.2863 3.09538L11.6021 5.72699C11.7816 6.09332 12.26 6.4447 12.6637 6.51198L15.0486 6.90822C16.5738 7.16241 16.9326 8.26888 15.8336 9.3604L13.9795 11.2145C13.6656 11.5285 13.4936 12.1341 13.5908 12.5677L14.1216 14.8629C14.5403 16.6796 13.5758 17.3823 11.9685 16.4329L9.73309 15.1096C9.32937 14.8703 8.664 14.8703 8.25281 15.1096L6.01743 16.4329C4.41753 17.3823 3.44563 16.6721 3.8643 14.8629L4.3951 12.5677C4.49229 12.1341 4.32034 11.5285 4.00634 11.2145L2.15225 9.3604C1.06073 8.26888 1.41211 7.16241 2.93725 6.90822L5.32215 6.51198C5.71839 6.4447 6.19686 6.09332 6.37629 5.72699L7.69209 3.09538C8.40981 1.66743 9.57609 1.66743 10.2863 3.09538Z" fill="#FFC400" stroke="#FFC300" stroke-width="1.22337" stroke-linecap="round" stroke-linejoin="round"/>
</svg>
