<svg width="15" height="15" viewBox="0 0 15 15" fill="none" xmlns="http://www.w3.org/2000/svg">
<path d="M12.6899 4.41569C10.7474 4.22319 8.79327 4.12402 6.84494 4.12402C5.68994 4.12402 4.53494 4.18236 3.37994 4.29902L2.18994 4.41569" stroke="#F51008" stroke-linecap="round" stroke-linejoin="round"/>
<path d="M5.39819 3.82625L5.52653 3.06208C5.61986 2.50792 5.68986 2.09375 6.67569 2.09375H8.20403C9.18986 2.09375 9.26569 2.53125 9.35319 3.06792L9.48153 3.82625" stroke="#F51008" stroke-linecap="round" stroke-linejoin="round"/>
<path d="M11.4358 6.25879L11.0566 12.133C10.9924 13.0488 10.9399 13.7605 9.31243 13.7605H5.56743C3.93993 13.7605 3.88743 13.0488 3.82326 12.133L3.44409 6.25879" stroke="#F51008" stroke-linecap="round" stroke-linejoin="round"/>
<path d="M6.46582 10.5522H8.40832" stroke="#F51008" stroke-linecap="round" stroke-linejoin="round"/>
<path d="M5.98169 8.21875H8.89836" stroke="#F51008" stroke-linecap="round" stroke-linejoin="round"/>
</svg>
